<svg width="187" height="277" viewBox="0 0 187 277" fill="none" xmlns="http://www.w3.org/2000/svg">
<path d="M149.603 79.0357H17.687V274.506H149.603V79.0357Z" fill="#F6BCBC"/>
<path d="M149.603 79.0357H17.687V274.506H149.603V79.0357Z" stroke="black" stroke-opacity="0.2" stroke-width="5"/>
<path d="M149.603 79.0357H17.687V274.506H149.603V79.0357Z" stroke="white" stroke-width="5"/>
<path d="M18.2211 147.13C14.184 147.13 10.3125 144.682 7.45791 140.325C4.60382 135.968 3 130.059 3 123.898C3 117.736 4.60382 111.827 7.45791 107.47C10.3125 103.113 14.184 100.666 18.2211 100.666V123.898V147.13Z" fill="white"/>
<g filter="url(#filter0_d_19_300)">
<path d="M20.0903 143.926C27.4644 143.926 33.4422 134.839 33.4422 123.631C33.4422 112.422 27.4644 103.336 20.0903 103.336C12.7163 103.336 6.73853 112.422 6.73853 123.631C6.73853 134.839 12.7163 143.926 20.0903 143.926Z" fill="#F6BCBC"/>
</g>
<path d="M19.8233 137.517C24.9851 137.517 29.1696 131.18 29.1696 123.364C29.1696 115.547 24.9851 109.211 19.8233 109.211C14.6615 109.211 10.4771 115.547 10.4771 123.364C10.4771 131.18 14.6615 137.517 19.8233 137.517Z" fill="#8A0096"/>
<g filter="url(#filter1_i_19_300)">
<path d="M19.8233 135.914C24.3952 135.914 28.1014 130.295 28.1014 123.364C28.1014 116.432 24.3952 110.813 19.8233 110.813C15.2514 110.813 11.5452 116.432 11.5452 123.364C11.5452 130.295 15.2514 135.914 19.8233 135.914Z" fill="#A77777"/>
</g>
<g filter="url(#filter2_i_19_300)">
<path d="M24.897 132.71C26.0769 132.71 27.0333 131.395 27.0333 129.773C27.0333 128.15 26.0769 126.835 24.897 126.835C23.7172 126.835 22.7607 128.15 22.7607 129.773C22.7607 131.395 23.7172 132.71 24.897 132.71Z" fill="#654949"/>
</g>
<g filter="url(#filter3_i_19_300)">
<path d="M95.6616 185.049C97.2839 185.049 98.599 183.256 98.599 181.044C98.599 178.831 97.2839 177.038 95.6616 177.038C94.0394 177.038 92.7242 178.831 92.7242 181.044C92.7242 183.256 94.0394 185.049 95.6616 185.049Z" fill="#AC8080"/>
</g>
<g filter="url(#filter4_i_19_300)">
<path d="M102.605 185.049C104.227 185.049 105.542 183.256 105.542 181.044C105.542 178.831 104.227 177.038 102.605 177.038C100.982 177.038 99.6672 178.831 99.6672 181.044C99.6672 183.256 100.982 185.049 102.605 185.049Z" fill="#AC8080"/>
</g>
<path d="M28.1014 123.364C28.1014 127.093 27.1016 130.419 25.5405 132.783C23.9746 135.154 21.9313 136.449 19.8233 136.449C17.7153 136.449 15.6719 135.154 14.106 132.783C12.5449 130.419 11.5452 127.093 11.5452 123.364C11.5452 119.635 12.5449 116.308 14.106 113.945C15.6719 111.573 17.7153 110.279 19.8233 110.279C21.9313 110.279 23.9746 111.573 25.5405 113.945C27.1016 116.308 28.1014 119.635 28.1014 123.364Z" stroke="#EEA3A3" stroke-width="4"/>
<path d="M24.0959 139.653C26.0131 139.653 27.5673 137.86 27.5673 135.647C27.5673 133.435 26.0131 131.642 24.0959 131.642C22.1786 131.642 20.6244 133.435 20.6244 135.647C20.6244 137.86 22.1786 139.653 24.0959 139.653Z" fill="#F6BCBC"/>
<g filter="url(#filter5_d_19_300)">
<path d="M13.1474 78.3617C4.44152 62.2807 47.1721 21.4033 47.1721 27.0506C47.1721 32.6984 40.9192 49.7888 47.1721 54.6232C53.4251 59.4576 85.9763 0.920978 87.4808 4.12541C88.9858 7.32985 83.378 42.3117 80.8679 45.9488C78.3577 49.5853 127.172 22.8181 124.502 28.1588C121.831 33.4995 101.269 50.0558 104.171 52.4543C107.073 54.8534 154.41 40.9766 147.2 48.9876C139.99 56.9987 130.643 61.0043 134.403 62.6781C138.163 64.3513 154.944 63.4076 153.876 63.9417C152.808 64.4752 142.591 71.0427 142.591 71.0427C144.948 69.8053 161.03 67.9643 163.756 77.8276C163.756 77.8276 174.704 80.2304 173.369 83.4353C172.034 86.6398 149.336 86.6398 152.273 85.5716C155.211 84.5035 164.557 80.2309 163.756 77.8276C160.552 74.6231 150.137 83.4353 150.137 83.4353C135.107 106.571 93.8934 101.375 60.4882 92.8051C46.989 99.081 37.2149 105.888 36.3796 111.474C33.4422 131.108 33.0053 95.2367 14.2156 103.87C14.2156 103.87 5.13634 84.2365 13.1474 78.3617Z" fill="black"/>
<path d="M163.756 77.8276C161.03 67.9643 144.948 69.8053 142.591 71.0427C142.591 71.0427 152.808 64.4752 153.876 63.9417C154.944 63.4076 138.163 64.3513 134.403 62.6781C130.643 61.0043 139.99 56.9987 147.2 48.9876C154.41 40.9766 107.073 54.8534 104.171 52.4543C101.269 50.0558 121.831 33.4995 124.502 28.1588C127.172 22.8181 78.3577 49.5853 80.8679 45.9488C83.378 42.3117 88.9858 7.32985 87.4808 4.12541C85.9763 0.920978 53.4251 59.4576 47.1721 54.6232C40.9192 49.7888 47.1721 32.6984 47.1721 27.0506C47.1721 21.4033 4.44152 62.2807 13.1474 78.3617C5.13634 84.2365 14.2156 103.87 14.2156 103.87C33.0053 95.2367 33.4422 131.108 36.3796 111.474C37.2149 105.888 46.989 99.081 60.4882 92.8051C93.8934 101.375 135.107 106.571 150.137 83.4353C150.137 83.4353 160.552 74.6231 163.756 77.8276ZM163.756 77.8276C164.557 80.2309 155.211 84.5035 152.273 85.5716C149.336 86.6398 172.034 86.6398 173.369 83.4353C174.704 80.2304 163.756 77.8276 163.756 77.8276Z" stroke="white" stroke-width="5"/>
</g>
<path d="M19.2866 106.729C19.6044 107.395 17.9429 107.686 16.189 108.523C14.4345 109.36 13.2516 110.427 12.9343 109.761C12.6166 109.095 13.6804 107.206 15.4349 106.368C17.1888 105.532 18.9688 106.064 19.2866 106.729Z" fill="#FEEFFF"/>
<path d="M80.7077 170.095C89.409 170.095 96.4628 157.661 96.4628 142.323C96.4628 126.985 89.409 114.551 80.7077 114.551C72.0063 114.551 64.9525 126.985 64.9525 142.323C64.9525 157.661 72.0063 170.095 80.7077 170.095Z" fill="white"/>
<path d="M116.491 170.095C125.192 170.095 132.246 157.661 132.246 142.323C132.246 126.985 125.192 114.551 116.491 114.551C107.789 114.551 100.735 126.985 100.735 142.323C100.735 157.661 107.789 170.095 116.491 170.095Z" fill="white"/>
<path d="M80.7076 169.027C88.819 169.027 95.3946 157.191 95.3946 142.59C95.3946 127.99 88.819 116.154 80.7076 116.154C72.5962 116.154 66.0206 127.99 66.0206 142.59C66.0206 157.191 72.5962 169.027 80.7076 169.027Z" fill="black"/>
<path d="M116.49 169.027C124.602 169.027 131.177 157.191 131.177 142.59C131.177 127.99 124.602 116.154 116.49 116.154C108.379 116.154 101.803 127.99 101.803 142.59C101.803 157.191 108.379 169.027 116.49 169.027Z" fill="black"/>
<path d="M127.359 135.651C128.814 134.694 127.612 130.3 124.675 125.837C121.738 121.374 118.177 118.532 116.722 119.49C115.267 120.448 116.469 124.842 119.406 129.305C122.344 133.767 125.904 136.609 127.359 135.651Z" fill="white"/>
<path d="M89.5778 139C91.2323 138.455 91.1988 133.837 89.5029 128.686C87.807 123.535 85.091 119.8 83.4365 120.345C81.782 120.889 81.8156 125.507 83.5114 130.658C85.2073 135.81 87.9233 139.544 89.5778 139Z" fill="white"/>
<path d="M107.111 152.754C107.811 152.524 108.192 151.769 107.962 151.068C107.731 150.368 106.976 149.987 106.276 150.218C105.575 150.448 105.195 151.203 105.425 151.903C105.656 152.604 106.411 152.985 107.111 152.754Z" fill="white"/>
<path d="M75.8874 161.959C76.5878 161.729 76.9687 160.974 76.7381 160.274C76.5076 159.573 75.7528 159.192 75.0524 159.423C74.352 159.653 73.9711 160.408 74.2017 161.109C74.4323 161.809 75.187 162.19 75.8874 161.959Z" fill="white"/>
<g filter="url(#filter6_d_19_300)">
<path d="M89.0984 112.399C88.1894 109.094 72.6676 107.046 66.9344 117.739C63.6893 123.791 69.468 116.749 76.702 113.75C82.8439 111.614 89.4931 113.833 89.0984 112.399Z" fill="black"/>
</g>
<g filter="url(#filter7_d_19_300)">
<path d="M108.762 112.464C109.666 109.078 125.101 106.98 130.803 117.936C134.029 124.137 127.957 117.09 120.763 114.017C114.621 111.394 108.369 113.933 108.762 112.464Z" fill="black"/>
</g>
<path d="M147.734 209.02C147.734 230.292 124.659 247.536 96.1958 247.536C67.7323 247.536 44.6577 230.292 44.6577 209.02C44.6577 187.748 78.5014 202.017 106.965 202.017C135.429 202.017 147.734 187.748 147.734 209.02Z" fill="#EEA3A3"/>
<path fill-rule="evenodd" clip-rule="evenodd" d="M57.5032 221.095C55.3691 216.948 54.271 212.503 54.271 208.014H139.189C139.189 212.503 138.091 216.948 135.956 221.095C133.823 225.242 130.695 229.01 126.753 232.184C123.112 235.114 118.843 237.485 114.154 239.184C99.8509 231.601 91.7058 231.279 76.9023 238.239C73.1531 236.645 69.7153 234.606 66.7069 232.184C62.7644 229.01 59.6368 225.242 57.5032 221.095Z" fill="black"/>
<path d="M96.7298 242.195C91.1541 242.195 85.6328 241.311 80.4817 239.593C79.2608 239.186 78.0666 238.734 76.9023 238.239C91.7058 231.279 99.8509 231.601 114.154 239.184C113.765 239.325 113.373 239.462 112.978 239.593C107.827 241.311 102.306 242.195 96.7298 242.195Z" fill="#920000"/>
<path d="M121.564 225.639C117.73 225.639 114.621 222.411 114.621 218.429C114.621 214.447 117.73 211.219 121.564 211.219C125.399 211.219 128.507 214.447 128.507 218.429C128.507 222.411 125.399 225.639 121.564 225.639Z" fill="white"/>
<path d="M114.621 208.014H128.507V218.696H114.621V208.014Z" fill="white"/>
<g filter="url(#filter8_d_19_300)">
<path d="M67.2746 188.921C59.9904 194.175 55.0289 198.427 44.6577 192.703C49.3538 201.501 57.9252 204.968 67.225 205.315C68.0101 205.328 68.7695 205.336 69.5049 205.339C79.0648 205.19 89.1134 201.998 96.3394 198.09L67.2746 188.921Z" fill="black"/>
<path d="M69.5049 205.339C79.0648 205.19 89.1134 201.998 96.3394 198.09C89.5241 203.106 84.4653 205.386 69.5049 205.339Z" fill="black"/>
<path d="M99.1332 192.903C99.1332 198.124 91.6289 202.358 82.3713 202.358C73.1142 202.358 65.61 198.124 65.61 192.903C65.61 187.681 73.1142 183.447 82.3713 183.447C91.6289 183.447 99.1332 187.681 99.1332 192.903Z" fill="black"/>
</g>
<g filter="url(#filter9_d_19_300)">
<path d="M126.307 188.921C132.52 194.175 136.752 198.427 145.598 192.703C141.592 201.501 134.281 204.968 126.349 205.315C125.679 205.328 125.031 205.336 124.404 205.339C116.25 205.19 107.679 201.998 101.516 198.09L126.307 188.921Z" fill="black"/>
<path d="M124.404 205.339C116.25 205.19 107.679 201.998 101.516 198.09C107.329 203.106 111.644 205.386 124.404 205.339Z" fill="black"/>
<path d="M99.1332 192.903C99.1332 198.124 105.534 202.358 113.43 202.358C121.326 202.358 127.726 198.124 127.726 192.903C127.726 187.681 121.326 183.447 113.43 183.447C105.534 183.447 99.1332 187.681 99.1332 192.903Z" fill="black"/>
</g>
<defs>
<filter id="filter0_d_19_300" x="0.738525" y="103.336" width="42.7036" height="58.5895" filterUnits="userSpaceOnUse" color-interpolation-filters="sRGB">
<feFlood flood-opacity="0" result="BackgroundImageFix"/>
<feColorMatrix in="SourceAlpha" type="matrix" values="0 0 0 0 0 0 0 0 0 0 0 0 0 0 0 0 0 0 127 0" result="hardAlpha"/>
<feOffset dx="2" dy="10"/>
<feGaussianBlur stdDeviation="4"/>
<feComposite in2="hardAlpha" operator="out"/>
<feColorMatrix type="matrix" values="0 0 0 0 0 0 0 0 0 0 0 0 0 0 0 0 0 0 0.05 0"/>
<feBlend mode="normal" in2="BackgroundImageFix" result="effect1_dropShadow_19_300"/>
<feBlend mode="normal" in="SourceGraphic" in2="effect1_dropShadow_19_300" result="shape"/>
</filter>
<filter id="filter1_i_19_300" x="11.5452" y="110.813" width="16.5563" height="29.1014" filterUnits="userSpaceOnUse" color-interpolation-filters="sRGB">
<feFlood flood-opacity="0" result="BackgroundImageFix"/>
<feBlend mode="normal" in="SourceGraphic" in2="BackgroundImageFix" result="shape"/>
<feColorMatrix in="SourceAlpha" type="matrix" values="0 0 0 0 0 0 0 0 0 0 0 0 0 0 0 0 0 0 127 0" result="hardAlpha"/>
<feOffset dy="4"/>
<feGaussianBlur stdDeviation="2"/>
<feComposite in2="hardAlpha" operator="arithmetic" k2="-1" k3="1"/>
<feColorMatrix type="matrix" values="0 0 0 0 0 0 0 0 0 0 0 0 0 0 0 0 0 0 0.25 0"/>
<feBlend mode="normal" in2="shape" result="effect1_innerShadow_19_300"/>
</filter>
<filter id="filter2_i_19_300" x="22.7607" y="126.835" width="4.27258" height="9.8748" filterUnits="userSpaceOnUse" color-interpolation-filters="sRGB">
<feFlood flood-opacity="0" result="BackgroundImageFix"/>
<feBlend mode="normal" in="SourceGraphic" in2="BackgroundImageFix" result="shape"/>
<feColorMatrix in="SourceAlpha" type="matrix" values="0 0 0 0 0 0 0 0 0 0 0 0 0 0 0 0 0 0 127 0" result="hardAlpha"/>
<feOffset dy="4"/>
<feGaussianBlur stdDeviation="2"/>
<feComposite in2="hardAlpha" operator="arithmetic" k2="-1" k3="1"/>
<feColorMatrix type="matrix" values="0 0 0 0 0 0 0 0 0 0 0 0 0 0 0 0 0 0 0.25 0"/>
<feBlend mode="normal" in2="shape" result="effect1_innerShadow_19_300"/>
</filter>
<filter id="filter3_i_19_300" x="92.7242" y="177.038" width="5.87476" height="12.0111" filterUnits="userSpaceOnUse" color-interpolation-filters="sRGB">
<feFlood flood-opacity="0" result="BackgroundImageFix"/>
<feBlend mode="normal" in="SourceGraphic" in2="BackgroundImageFix" result="shape"/>
<feColorMatrix in="SourceAlpha" type="matrix" values="0 0 0 0 0 0 0 0 0 0 0 0 0 0 0 0 0 0 127 0" result="hardAlpha"/>
<feOffset dy="4"/>
<feGaussianBlur stdDeviation="2"/>
<feComposite in2="hardAlpha" operator="arithmetic" k2="-1" k3="1"/>
<feColorMatrix type="matrix" values="0 0 0 0 0 0 0 0 0 0 0 0 0 0 0 0 0 0 0.25 0"/>
<feBlend mode="normal" in2="shape" result="effect1_innerShadow_19_300"/>
</filter>
<filter id="filter4_i_19_300" x="99.6672" y="177.038" width="5.87476" height="12.0111" filterUnits="userSpaceOnUse" color-interpolation-filters="sRGB">
<feFlood flood-opacity="0" result="BackgroundImageFix"/>
<feBlend mode="normal" in="SourceGraphic" in2="BackgroundImageFix" result="shape"/>
<feColorMatrix in="SourceAlpha" type="matrix" values="0 0 0 0 0 0 0 0 0 0 0 0 0 0 0 0 0 0 127 0" result="hardAlpha"/>
<feOffset dy="4"/>
<feGaussianBlur stdDeviation="2"/>
<feComposite in2="hardAlpha" operator="arithmetic" k2="-1" k3="1"/>
<feColorMatrix type="matrix" values="0 0 0 0 0 0 0 0 0 0 0 0 0 0 0 0 0 0 0.25 0"/>
<feBlend mode="normal" in2="shape" result="effect1_innerShadow_19_300"/>
</filter>
<filter id="filter5_d_19_300" x="7.34436" y="0.498655" width="179.638" height="128.439" filterUnits="userSpaceOnUse" color-interpolation-filters="sRGB">
<feFlood flood-opacity="0" result="BackgroundImageFix"/>
<feColorMatrix in="SourceAlpha" type="matrix" values="0 0 0 0 0 0 0 0 0 0 0 0 0 0 0 0 0 0 127 0" result="hardAlpha"/>
<feOffset dx="6" dy="4"/>
<feGaussianBlur stdDeviation="2.5"/>
<feComposite in2="hardAlpha" operator="out"/>
<feColorMatrix type="matrix" values="0 0 0 0 0 0 0 0 0 0 0 0 0 0 0 0 0 0 0.1 0"/>
<feBlend mode="normal" in2="BackgroundImageFix" result="effect1_dropShadow_19_300"/>
<feBlend mode="normal" in="SourceGraphic" in2="effect1_dropShadow_19_300" result="shape"/>
</filter>
<filter id="filter6_d_19_300" x="62.0093" y="109.745" width="31.1058" height="18.3749" filterUnits="userSpaceOnUse" color-interpolation-filters="sRGB">
<feFlood flood-opacity="0" result="BackgroundImageFix"/>
<feColorMatrix in="SourceAlpha" type="matrix" values="0 0 0 0 0 0 0 0 0 0 0 0 0 0 0 0 0 0 127 0" result="hardAlpha"/>
<feOffset dy="4"/>
<feGaussianBlur stdDeviation="2"/>
<feComposite in2="hardAlpha" operator="out"/>
<feColorMatrix type="matrix" values="0 0 0 0 0 0 0 0 0 0 0 0 0 0 0 0 0 0 0.3 0"/>
<feBlend mode="normal" in2="BackgroundImageFix" result="effect1_dropShadow_19_300"/>
<feBlend mode="normal" in="SourceGraphic" in2="effect1_dropShadow_19_300" result="shape"/>
</filter>
<filter id="filter7_d_19_300" x="104.744" y="109.745" width="30.9465" height="18.6637" filterUnits="userSpaceOnUse" color-interpolation-filters="sRGB">
<feFlood flood-opacity="0" result="BackgroundImageFix"/>
<feColorMatrix in="SourceAlpha" type="matrix" values="0 0 0 0 0 0 0 0 0 0 0 0 0 0 0 0 0 0 127 0" result="hardAlpha"/>
<feOffset dy="4"/>
<feGaussianBlur stdDeviation="2"/>
<feComposite in2="hardAlpha" operator="out"/>
<feColorMatrix type="matrix" values="0 0 0 0 0 0 0 0 0 0 0 0 0 0 0 0 0 0 0.3 0"/>
<feBlend mode="normal" in2="BackgroundImageFix" result="effect1_dropShadow_19_300"/>
<feBlend mode="normal" in="SourceGraphic" in2="effect1_dropShadow_19_300" result="shape"/>
</filter>
<filter id="filter8_d_19_300" x="40.6577" y="183.447" width="62.4755" height="29.8924" filterUnits="userSpaceOnUse" color-interpolation-filters="sRGB">
<feFlood flood-opacity="0" result="BackgroundImageFix"/>
<feColorMatrix in="SourceAlpha" type="matrix" values="0 0 0 0 0 0 0 0 0 0 0 0 0 0 0 0 0 0 127 0" result="hardAlpha"/>
<feOffset dy="4"/>
<feGaussianBlur stdDeviation="2"/>
<feComposite in2="hardAlpha" operator="out"/>
<feColorMatrix type="matrix" values="0 0 0 0 0 0 0 0 0 0 0 0 0 0 0 0 0 0 0.3 0"/>
<feBlend mode="normal" in2="BackgroundImageFix" result="effect1_dropShadow_19_300"/>
<feBlend mode="normal" in="SourceGraphic" in2="effect1_dropShadow_19_300" result="shape"/>
</filter>
<filter id="filter9_d_19_300" x="95.1332" y="183.447" width="54.4644" height="29.8924" filterUnits="userSpaceOnUse" color-interpolation-filters="sRGB">
<feFlood flood-opacity="0" result="BackgroundImageFix"/>
<feColorMatrix in="SourceAlpha" type="matrix" values="0 0 0 0 0 0 0 0 0 0 0 0 0 0 0 0 0 0 127 0" result="hardAlpha"/>
<feOffset dy="4"/>
<feGaussianBlur stdDeviation="2"/>
<feComposite in2="hardAlpha" operator="out"/>
<feColorMatrix type="matrix" values="0 0 0 0 0 0 0 0 0 0 0 0 0 0 0 0 0 0 0.3 0"/>
<feBlend mode="normal" in2="BackgroundImageFix" result="effect1_dropShadow_19_300"/>
<feBlend mode="normal" in="SourceGraphic" in2="effect1_dropShadow_19_300" result="shape"/>
</filter>
</defs>
</svg>
