<svg width="626" height="625" viewBox="0 0 626 625" fill="none" xmlns="http://www.w3.org/2000/svg">
<path d="M506.64 438.275C507.408 446.432 503.176 455.079 493.923 463.82C484.7 472.535 470.808 481.018 453.158 488.752C417.885 504.209 368.137 516.441 312.296 521.699C256.455 526.957 205.299 524.226 167.76 515.626C148.977 511.322 133.746 505.582 123.057 498.742C112.336 491.881 106.564 484.177 105.796 476.019C105.028 467.862 109.26 459.216 118.512 450.474C127.736 441.759 141.628 433.276 159.278 425.542C194.551 410.086 244.298 397.853 300.14 392.595C355.981 387.337 407.137 390.068 444.676 398.669C463.459 402.972 478.69 408.713 489.378 415.553C500.1 422.413 505.872 430.118 506.64 438.275Z" fill="#C9F4B5" stroke="white" stroke-width="5"/>
<path d="M505.64 436.347C506.408 444.505 502.176 453.151 492.923 461.893C483.7 470.607 469.808 479.091 452.158 486.824C416.885 502.281 367.137 514.513 311.296 519.771C255.455 525.029 204.299 522.298 166.76 513.698C147.977 509.395 132.746 503.654 122.057 496.814C111.336 489.953 105.564 482.249 104.796 474.092C104.028 465.934 108.26 457.288 117.512 448.546C126.736 439.832 140.628 431.348 158.278 423.615C193.551 408.158 243.298 395.926 299.14 390.668C354.981 385.41 406.137 388.141 443.676 396.741C462.459 401.044 477.69 406.785 488.378 413.625C499.1 420.486 504.872 428.19 505.64 436.347Z" fill="#C9F4B5" stroke="white" stroke-width="5"/>
<ellipse cx="302.874" cy="455.827" rx="172.296" ry="56.9257" transform="rotate(-5.37922 302.874 455.827)" fill="#BDE5AB"/>
<ellipse cx="298.21" cy="465.142" rx="104.435" ry="34.5048" transform="rotate(-5.37922 298.21 465.142)" fill="#A2CA8F"/>
<path d="M426 316.501C449.559 302.945 464.307 301.737 479 327C487.68 343.133 452.562 359.874 414.5 385.001L394.5 430.5C453.714 389.835 518.318 364.631 501.5 317.501C483.709 285.196 462.94 278.917 423.5 291.002L426 316.501Z" fill="#C9E8BB" stroke="white" stroke-width="5"/>
<path d="M427.818 275.117C428.839 286.663 428.723 309.223 427.278 331.719C426.494 343.929 425.323 356.042 423.749 366.27C422.159 376.599 420.2 384.697 417.962 389.096L417.895 389.228L417.844 389.367C410.811 408.498 400.509 425.863 387.539 440.478C374.57 455.091 359.189 466.665 342.284 474.555C325.38 482.445 307.275 486.5 289 486.5C270.725 486.5 252.62 482.445 235.716 474.555C218.811 466.665 203.43 455.091 190.461 440.478C177.49 425.863 167.188 408.498 160.156 389.367L160.132 389.302L160.105 389.239C155.975 379.663 149.939 362.346 145.057 344.79C140.533 328.52 137.108 312.415 136.962 302.122L288.879 309.497L289.246 309.515L289.602 309.426L427.818 275.117Z" fill="#C9F4B5" stroke="white" stroke-width="5"/>
<path d="M425.423 273.86C425.52 274.845 425.137 276.167 423.632 277.888C422.128 279.609 419.705 281.484 416.31 283.451C409.533 287.375 399.403 291.371 386.576 295.178C360.962 302.778 325.093 309.478 285.058 313.442C245.023 317.405 208.536 317.868 181.929 315.438C168.605 314.22 157.888 312.288 150.473 309.768C146.758 308.506 144.014 307.142 142.202 305.75C140.389 304.357 139.754 303.136 139.657 302.151C139.559 301.166 139.943 299.844 141.447 298.122C142.951 296.402 145.374 294.527 148.77 292.56C155.546 288.635 165.676 284.639 178.503 280.833C204.117 273.233 239.987 266.532 280.022 262.569C320.057 258.605 356.543 258.142 383.15 260.573C396.475 261.79 407.192 263.722 414.606 266.242C418.321 267.505 421.065 268.869 422.877 270.261C424.69 271.654 425.325 272.875 425.423 273.86Z" fill="#D9D9D9" stroke="#C9E8BB" stroke-width="5"/>
<path d="M284.485 314.788C322.465 311.101 356.651 305.084 381.234 298.314C393.506 294.934 403.503 291.335 410.403 287.687C413.843 285.868 416.651 283.966 418.588 281.969C420.507 279.992 421.864 277.603 421.603 274.915C421.342 272.226 419.551 270.143 417.288 268.572C415.003 266.985 411.881 265.659 408.156 264.536C400.682 262.283 390.179 260.674 377.487 259.718C352.06 257.803 317.355 258.475 279.375 262.163C241.395 265.85 207.209 271.867 182.626 278.637C170.355 282.017 160.358 285.616 153.457 289.265C150.017 291.084 147.209 292.986 145.272 294.982C143.353 296.96 141.996 299.348 142.257 302.037C142.518 304.725 144.309 306.808 146.573 308.379C148.858 309.966 151.979 311.292 155.705 312.416C163.178 314.669 173.681 316.277 186.374 317.233C211.8 319.148 246.505 318.476 284.485 314.788Z" fill="#9AC187" stroke="#C9E8BB" stroke-width="5"/>
<path d="M138 312.5C137.5 308.001 135.642 299.264 137.411 296.403C139.639 291.713 147.36 286.667 159.93 281.688C172.499 276.709 189.552 271.941 209.664 267.782C229.776 263.623 252.362 260.194 275.538 257.781C298.713 255.368 321.804 254.041 342.881 253.912C363.958 253.782 382.411 254.853 396.697 257.036C410.982 259.219 420.687 262.449 424.999 266.458C428.255 269.484 427.621 273.5 428 279.5" stroke="white" stroke-width="5"/>
<g filter="url(#filter0_i_47_82)">
<ellipse cx="283.581" cy="292.795" rx="129.437" ry="19.7355" transform="rotate(-5.54555 283.581 292.795)" fill="#C58E4C"/>
</g>
<g filter="url(#filter1_f_47_82)">
<ellipse cx="283.711" cy="292.822" rx="112.183" ry="17.0591" transform="rotate(-5.54555 283.711 292.822)" fill="#B58042"/>
</g>
<g filter="url(#filter2_f_47_82)">
<ellipse cx="278.843" cy="293.127" rx="81.0285" ry="12.3545" transform="rotate(-5.54555 278.843 293.127)" fill="#9D6E36"/>
</g>
<g filter="url(#filter3_f_47_82)">
<ellipse cx="281.427" cy="293.434" rx="42.0047" ry="6.40452" transform="rotate(-5.54555 281.427 293.434)" fill="#845D2D"/>
</g>
<path d="M336 306C334.5 294.501 352.337 295.569 356.5 307.5C358.854 315.247 357.705 325.535 352.5 351.5" stroke="white" stroke-width="5"/>
<g filter="url(#filter4_d_47_82)">
<rect x="335.711" y="348" width="33.7575" height="31.507" rx="5" transform="rotate(10.4427 335.711 348)" fill="#FF7474"/>
</g>
<ellipse cx="468.815" cy="298.506" rx="16.3517" ry="4.5" transform="rotate(22.8906 468.815 298.506)" fill="#E4F2DD"/>
<ellipse cx="231.607" cy="453.887" rx="32.6359" ry="7.5698" transform="rotate(32.4213 231.607 453.887)" fill="#E4F2DD"/>
<mask id="path-18-outside-1_47_82" maskUnits="userSpaceOnUse" x="334.813" y="351.947" width="31.7149" height="17.3986" fill="black">
<rect fill="white" x="334.813" y="351.947" width="31.7149" height="17.3986"/>
<path d="M337.578 354.686L337.91 352.942L346.125 354.506L345.793 356.25L342.731 355.667L341.159 363.925L339.068 363.527L340.641 355.269L337.578 354.686ZM345.574 364.766L347.478 354.764L354.218 356.047L353.886 357.79L349.261 356.91L348.807 359.293L353.085 360.108L352.753 361.851L348.475 361.037L348.02 363.425L352.665 364.309L352.333 366.053L345.574 364.766ZM355.719 366.697L353.453 366.266L358.81 356.921L361.535 357.44L363.079 368.098L360.813 367.667L359.776 359.473L359.698 359.459L355.719 366.697ZM356.326 362.739L361.678 363.758L361.364 365.408L356.011 364.389L356.326 362.739Z"/>
</mask>
<path d="M337.578 354.686L337.91 352.942L346.125 354.506L345.793 356.25L342.731 355.667L341.159 363.925L339.068 363.527L340.641 355.269L337.578 354.686ZM345.574 364.766L347.478 354.764L354.218 356.047L353.886 357.79L349.261 356.91L348.807 359.293L353.085 360.108L352.753 361.851L348.475 361.037L348.02 363.425L352.665 364.309L352.333 366.053L345.574 364.766ZM355.719 366.697L353.453 366.266L358.81 356.921L361.535 357.44L363.079 368.098L360.813 367.667L359.776 359.473L359.698 359.459L355.719 366.697ZM356.326 362.739L361.678 363.758L361.364 365.408L356.011 364.389L356.326 362.739Z" fill="#FFE500"/>
<path d="M337.578 354.686L337.284 354.63L337.228 354.925L337.522 354.981L337.578 354.686ZM337.91 352.942L337.966 352.648L337.672 352.592L337.616 352.886L337.91 352.942ZM346.125 354.506L346.42 354.562L346.476 354.268L346.181 354.211L346.125 354.506ZM345.793 356.25L345.737 356.544L346.032 356.601L346.088 356.306L345.793 356.25ZM342.731 355.667L342.787 355.372L342.492 355.316L342.436 355.611L342.731 355.667ZM341.159 363.925L341.103 364.22L341.397 364.276L341.453 363.982L341.159 363.925ZM339.068 363.527L338.774 363.471L338.718 363.766L339.012 363.822L339.068 363.527ZM340.641 355.269L340.935 355.325L340.991 355.03L340.697 354.974L340.641 355.269ZM337.873 354.742L338.205 352.998L337.616 352.886L337.284 354.63L337.873 354.742ZM337.854 353.237L346.069 354.801L346.181 354.211L337.966 352.648L337.854 353.237ZM345.83 354.45L345.498 356.194L346.088 356.306L346.42 354.562L345.83 354.45ZM345.849 355.955L342.787 355.372L342.675 355.961L345.737 356.544L345.849 355.955ZM342.436 355.611L340.864 363.869L341.453 363.982L343.026 355.723L342.436 355.611ZM341.215 363.631L339.124 363.233L339.012 363.822L341.103 364.22L341.215 363.631ZM339.363 363.584L340.935 355.325L340.346 355.213L338.774 363.471L339.363 363.584ZM340.697 354.974L337.634 354.391L337.522 354.981L340.584 355.564L340.697 354.974ZM345.574 364.766L345.279 364.71L345.223 365.005L345.518 365.061L345.574 364.766ZM347.478 354.764L347.534 354.469L347.239 354.413L347.183 354.708L347.478 354.764ZM354.218 356.047L354.512 356.103L354.568 355.808L354.274 355.752L354.218 356.047ZM353.886 357.79L353.83 358.085L354.124 358.141L354.18 357.846L353.886 357.79ZM349.261 356.91L349.317 356.615L349.022 356.559L348.966 356.854L349.261 356.91ZM348.807 359.293L348.512 359.237L348.456 359.532L348.751 359.588L348.807 359.293ZM353.085 360.108L353.38 360.164L353.436 359.869L353.141 359.813L353.085 360.108ZM352.753 361.851L352.697 362.146L352.992 362.202L353.048 361.907L352.753 361.851ZM348.475 361.037L348.531 360.742L348.236 360.686L348.18 360.981L348.475 361.037ZM348.02 363.425L347.726 363.369L347.669 363.664L347.964 363.72L348.02 363.425ZM352.665 364.309L352.96 364.365L353.016 364.071L352.721 364.014L352.665 364.309ZM352.333 366.053L352.277 366.347L352.572 366.403L352.628 366.109L352.333 366.053ZM345.868 364.822L347.772 354.82L347.183 354.708L345.279 364.71L345.868 364.822ZM347.422 355.058L354.161 356.341L354.274 355.752L347.534 354.469L347.422 355.058ZM353.923 355.991L353.591 357.734L354.18 357.846L354.512 356.103L353.923 355.991ZM353.942 357.496L349.317 356.615L349.204 357.205L353.83 358.085L353.942 357.496ZM348.966 356.854L348.512 359.237L349.102 359.349L349.555 356.966L348.966 356.854ZM348.751 359.588L353.029 360.402L353.141 359.813L348.863 358.998L348.751 359.588ZM352.79 360.052L352.459 361.795L353.048 361.907L353.38 360.164L352.79 360.052ZM352.809 361.556L348.531 360.742L348.419 361.331L352.697 362.146L352.809 361.556ZM348.18 360.981L347.726 363.369L348.315 363.481L348.77 361.093L348.18 360.981ZM347.964 363.72L352.609 364.604L352.721 364.014L348.076 363.13L347.964 363.72ZM352.37 364.253L352.038 365.997L352.628 366.109L352.96 364.365L352.37 364.253ZM352.389 365.758L345.63 364.471L345.518 365.061L352.277 366.347L352.389 365.758ZM355.719 366.697L355.663 366.992L355.877 367.033L355.982 366.842L355.719 366.697ZM353.453 366.266L353.192 366.117L352.983 366.482L353.396 366.561L353.453 366.266ZM358.81 356.921L358.866 356.626L358.656 356.586L358.549 356.772L358.81 356.921ZM361.535 357.44L361.832 357.397L361.801 357.185L361.591 357.145L361.535 357.44ZM363.079 368.098L363.023 368.393L363.436 368.472L363.376 368.055L363.079 368.098ZM360.813 367.667L360.515 367.705L360.542 367.921L360.756 367.962L360.813 367.667ZM359.776 359.473L360.074 359.436L360.046 359.219L359.832 359.179L359.776 359.473ZM359.698 359.459L359.754 359.164L359.54 359.123L359.435 359.314L359.698 359.459ZM356.326 362.739L356.382 362.444L356.087 362.388L356.031 362.683L356.326 362.739ZM361.678 363.758L361.973 363.814L362.029 363.519L361.734 363.463L361.678 363.758ZM361.364 365.408L361.308 365.703L361.603 365.759L361.659 365.465L361.364 365.408ZM356.011 364.389L355.717 364.333L355.66 364.628L355.955 364.684L356.011 364.389ZM355.775 366.402L353.509 365.971L353.396 366.561L355.663 366.992L355.775 366.402ZM353.713 366.415L359.07 357.07L358.549 356.772L353.192 366.117L353.713 366.415ZM358.753 357.216L361.479 357.734L361.591 357.145L358.866 356.626L358.753 357.216ZM361.238 357.483L362.782 368.141L363.376 368.055L361.832 357.397L361.238 357.483ZM363.135 367.804L360.869 367.372L360.756 367.962L363.023 368.393L363.135 367.804ZM361.11 367.629L360.074 359.436L359.479 359.511L360.515 367.705L361.11 367.629ZM359.832 359.179L359.754 359.164L359.642 359.753L359.72 359.768L359.832 359.179ZM359.435 359.314L355.456 366.553L355.982 366.842L359.961 359.603L359.435 359.314ZM356.269 363.033L361.622 364.052L361.734 363.463L356.382 362.444L356.269 363.033ZM361.384 363.702L361.069 365.352L361.659 365.465L361.973 363.814L361.384 363.702ZM361.42 365.114L356.067 364.095L355.955 364.684L361.308 365.703L361.42 365.114ZM356.306 364.446L356.62 362.795L356.031 362.683L355.717 364.333L356.306 364.446Z" fill="#B7A500" mask="url(#path-18-outside-1_47_82)"/>
<path d="M308.5 223.001C315 232.002 266.794 195.206 287 161.501C307.206 127.796 270.16 102.524 276 102.001C281.84 101.477 318 131.5 300 173.001C282.001 214.502 302 214 308.5 223.001Z" fill="#F4F4F4" stroke="white" stroke-width="5"/>
<path d="M265 154C274.804 129.966 219.446 170.944 243 211.5C255.693 228.976 273 257.5 270.5 280.5C268 303.5 288.891 254.696 265 218.5C241.888 188.467 255.196 178.034 265 154Z" fill="#F4F4F4" stroke="white" stroke-width="5"/>
<path d="M302.5 235.5C287 240.5 332.501 244.5 331.5 228.5C330.5 212.5 310.5 203.499 329.5 160C348.5 116.5 299.5 92.9995 307.5 106C315.5 119 325.124 139.083 313 173.5C305.78 191.42 317.563 216 321.5 222.5C325.438 229 318 230.5 302.5 235.5Z" fill="#F4F4F4" stroke="white" stroke-width="5"/>
<path d="M234.5 240.501C247.081 252.628 253 262 251 286.501C249 311.002 218.61 226.818 234.5 240.501Z" fill="#F4F4F4" stroke="white" stroke-width="5"/>
<defs>
<filter id="filter0_i_47_82" x="154.736" y="269.504" width="257.691" height="50.582" filterUnits="userSpaceOnUse" color-interpolation-filters="sRGB">
<feFlood flood-opacity="0" result="BackgroundImageFix"/>
<feBlend mode="normal" in="SourceGraphic" in2="BackgroundImageFix" result="shape"/>
<feColorMatrix in="SourceAlpha" type="matrix" values="0 0 0 0 0 0 0 0 0 0 0 0 0 0 0 0 0 0 127 0" result="hardAlpha"/>
<feOffset dy="4"/>
<feGaussianBlur stdDeviation="2.1"/>
<feComposite in2="hardAlpha" operator="arithmetic" k2="-1" k3="1"/>
<feColorMatrix type="matrix" values="0 0 0 0 0.772549 0 0 0 0 0.556863 0 0 0 0 0.298039 0 0 0 0.6 0"/>
<feBlend mode="normal" in2="shape" result="effect1_innerShadow_47_82"/>
</filter>
<filter id="filter1_f_47_82" x="167.241" y="267.874" width="232.941" height="49.8949" filterUnits="userSpaceOnUse" color-interpolation-filters="sRGB">
<feFlood flood-opacity="0" result="BackgroundImageFix"/>
<feBlend mode="normal" in="SourceGraphic" in2="BackgroundImageFix" result="shape"/>
<feGaussianBlur stdDeviation="2.4" result="effect1_foregroundBlur_47_82"/>
</filter>
<filter id="filter2_f_47_82" x="193.385" y="273.747" width="170.917" height="38.7602" filterUnits="userSpaceOnUse" color-interpolation-filters="sRGB">
<feFlood flood-opacity="0" result="BackgroundImageFix"/>
<feBlend mode="normal" in="SourceGraphic" in2="BackgroundImageFix" result="shape"/>
<feGaussianBlur stdDeviation="2.4" result="effect1_foregroundBlur_47_82"/>
</filter>
<filter id="filter3_f_47_82" x="234.814" y="281.077" width="93.2255" height="24.7152" filterUnits="userSpaceOnUse" color-interpolation-filters="sRGB">
<feFlood flood-opacity="0" result="BackgroundImageFix"/>
<feBlend mode="normal" in="SourceGraphic" in2="BackgroundImageFix" result="shape"/>
<feGaussianBlur stdDeviation="2.4" result="effect1_foregroundBlur_47_82"/>
</filter>
<filter id="filter4_d_47_82" x="326.823" y="348.822" width="45.2639" height="43.459" filterUnits="userSpaceOnUse" color-interpolation-filters="sRGB">
<feFlood flood-opacity="0" result="BackgroundImageFix"/>
<feColorMatrix in="SourceAlpha" type="matrix" values="0 0 0 0 0 0 0 0 0 0 0 0 0 0 0 0 0 0 127 0" result="hardAlpha"/>
<feOffset dy="4"/>
<feGaussianBlur stdDeviation="2"/>
<feComposite in2="hardAlpha" operator="out"/>
<feColorMatrix type="matrix" values="0 0 0 0 0 0 0 0 0 0 0 0 0 0 0 0 0 0 0.3 0"/>
<feBlend mode="normal" in2="BackgroundImageFix" result="effect1_dropShadow_47_82"/>
<feBlend mode="normal" in="SourceGraphic" in2="effect1_dropShadow_47_82" result="shape"/>
</filter>
</defs>
</svg>
